<svg width="461" height="48" viewBox="0 0 461 48" fill="none" xmlns="http://www.w3.org/2000/svg">
<rect width="461" height="48" rx="24" fill="#E6EDF5"/>
<g clip-path="url(#clip0_2457_174)">
<rect x="5.09375" y="4" width="150.271" height="40" rx="20" fill="#3F8CFF"/>
<path d="M51.8463 29V17.72H56.7423C57.5743 17.72 58.2783 17.8587 58.8543 18.136C59.4303 18.4133 59.8676 18.8133 60.1663 19.336C60.4649 19.8587 60.6143 20.4933 60.6143 21.24C60.6143 21.976 60.4649 22.6107 60.1663 23.144C59.8676 23.6667 59.4303 24.072 58.8543 24.36C58.2783 24.6373 57.5743 24.776 56.7423 24.776H53.8943V29H51.8463ZM53.8943 23.16H56.4223C57.1476 23.16 57.6969 23 58.0703 22.68C58.4436 22.3493 58.6303 21.8693 58.6303 21.24C58.6303 20.6107 58.4436 20.136 58.0703 19.816C57.6969 19.496 57.1476 19.336 56.4223 19.336H53.8943V23.16ZM61.9355 29V21.176H63.8875V23.064H63.7275C63.8768 22.424 64.1702 21.9387 64.6075 21.608C65.0448 21.2667 65.6262 21.0693 66.3515 21.016L66.9595 20.968L67.0875 22.664L65.9355 22.776C65.2848 22.84 64.7942 23.0427 64.4635 23.384C64.1328 23.7147 63.9675 24.184 63.9675 24.792V29H61.9355ZM71.6441 29.16C70.8335 29.16 70.1295 28.9947 69.5321 28.664C68.9348 28.3333 68.4708 27.864 68.1401 27.256C67.8095 26.6373 67.6441 25.912 67.6441 25.08C67.6441 24.248 67.8095 23.528 68.1401 22.92C68.4708 22.312 68.9348 21.8427 69.5321 21.512C70.1295 21.1813 70.8335 21.016 71.6441 21.016C72.4548 21.016 73.1588 21.1813 73.7561 21.512C74.3535 21.8427 74.8175 22.312 75.1481 22.92C75.4788 23.528 75.6441 24.248 75.6441 25.08C75.6441 25.912 75.4788 26.6373 75.1481 27.256C74.8175 27.864 74.3535 28.3333 73.7561 28.664C73.1588 28.9947 72.4548 29.16 71.6441 29.16ZM71.6441 27.64C72.2415 27.64 72.7215 27.4267 73.0841 27C73.4468 26.5627 73.6281 25.9227 73.6281 25.08C73.6281 24.2267 73.4468 23.592 73.0841 23.176C72.7215 22.7493 72.2415 22.536 71.6441 22.536C71.0468 22.536 70.5668 22.7493 70.2041 23.176C69.8415 23.592 69.6601 24.2267 69.6601 25.08C69.6601 25.9227 69.8415 26.5627 70.2041 27C70.5668 27.4267 71.0468 27.64 71.6441 27.64ZM77.2309 19.496V17.544H79.4709V19.496H77.2309ZM75.5349 32.088L75.3909 30.632L76.1269 30.552C76.5429 30.4987 76.8522 30.3547 77.0549 30.12C77.2575 29.896 77.3589 29.56 77.3589 29.112V21.176H79.3589V28.856C79.3589 29.3787 79.3002 29.832 79.1829 30.216C79.0655 30.6 78.8842 30.92 78.6389 31.176C78.3935 31.432 78.0682 31.6293 77.6629 31.768C77.2682 31.9067 76.7882 31.9973 76.2229 32.04L75.5349 32.088ZM85.2915 29.16C84.4062 29.16 83.6435 28.9947 83.0035 28.664C82.3635 28.3333 81.8675 27.864 81.5155 27.256C81.1742 26.648 81.0035 25.928 81.0035 25.096C81.0035 24.2853 81.1688 23.576 81.4995 22.968C81.8408 22.36 82.3048 21.8853 82.8915 21.544C83.4888 21.192 84.1662 21.016 84.9235 21.016C85.6702 21.016 86.3102 21.176 86.8435 21.496C87.3768 21.816 87.7875 22.2693 88.0755 22.856C88.3742 23.4427 88.5235 24.1413 88.5235 24.952V25.544H82.6195V24.392H87.1155L86.8595 24.632C86.8595 23.9067 86.6995 23.352 86.3795 22.968C86.0595 22.5733 85.6008 22.376 85.0035 22.376C84.5555 22.376 84.1715 22.4827 83.8515 22.696C83.5422 22.8987 83.3022 23.192 83.1315 23.576C82.9715 23.9493 82.8915 24.3973 82.8915 24.92V25.032C82.8915 25.6187 82.9822 26.104 83.1635 26.488C83.3448 26.872 83.6168 27.16 83.9795 27.352C84.3422 27.544 84.7902 27.64 85.3235 27.64C85.7608 27.64 86.1982 27.576 86.6355 27.448C87.0728 27.3093 87.4728 27.096 87.8355 26.808L88.3955 28.152C88.0222 28.4613 87.5528 28.7067 86.9875 28.888C86.4222 29.0693 85.8568 29.16 85.2915 29.16ZM93.7234 29.16C92.902 29.16 92.1874 28.9947 91.5794 28.664C90.9714 28.3227 90.502 27.8427 90.1714 27.224C89.8407 26.6053 89.6754 25.88 89.6754 25.048C89.6754 24.216 89.8407 23.5013 90.1714 22.904C90.502 22.296 90.9714 21.832 91.5794 21.512C92.1874 21.1813 92.902 21.016 93.7234 21.016C94.2247 21.016 94.7207 21.096 95.2114 21.256C95.702 21.416 96.1074 21.64 96.4274 21.928L95.8354 23.32C95.558 23.0747 95.2434 22.888 94.8914 22.76C94.55 22.632 94.2194 22.568 93.8994 22.568C93.206 22.568 92.6674 22.7867 92.2834 23.224C91.91 23.6507 91.7234 24.264 91.7234 25.064C91.7234 25.8533 91.91 26.4773 92.2834 26.936C92.6674 27.384 93.206 27.608 93.8994 27.608C94.2087 27.608 94.5394 27.544 94.8914 27.416C95.2434 27.288 95.558 27.096 95.8354 26.84L96.4274 28.248C96.1074 28.5253 95.6967 28.7493 95.1954 28.92C94.7047 29.08 94.214 29.16 93.7234 29.16ZM101.27 29.16C100.224 29.16 99.4455 28.8987 98.9335 28.376C98.4215 27.8533 98.1655 27.0907 98.1655 26.088V22.68H96.6615V21.176H98.1655V18.84H100.166V21.176H102.534V22.68H100.166V25.976C100.166 26.488 100.278 26.872 100.502 27.128C100.726 27.384 101.088 27.512 101.59 27.512C101.739 27.512 101.894 27.496 102.054 27.464C102.214 27.4213 102.379 27.3787 102.55 27.336L102.854 28.808C102.662 28.9147 102.416 29 102.118 29.064C101.83 29.128 101.547 29.16 101.27 29.16ZM106.69 29.16C106.253 29.16 105.826 29.1227 105.41 29.048C105.005 28.9733 104.631 28.872 104.29 28.744C103.949 28.6053 103.65 28.4347 103.394 28.232L103.906 26.92C104.173 27.0907 104.461 27.24 104.77 27.368C105.079 27.496 105.399 27.592 105.73 27.656C106.061 27.72 106.386 27.752 106.706 27.752C107.218 27.752 107.597 27.6667 107.842 27.496C108.098 27.3147 108.226 27.08 108.226 26.792C108.226 26.5467 108.141 26.36 107.97 26.232C107.81 26.0933 107.565 25.992 107.234 25.928L105.634 25.624C104.973 25.496 104.466 25.256 104.114 24.904C103.773 24.5413 103.602 24.0773 103.602 23.512C103.602 23 103.741 22.5573 104.018 22.184C104.306 21.8107 104.701 21.5227 105.202 21.32C105.703 21.1173 106.279 21.016 106.93 21.016C107.303 21.016 107.666 21.0533 108.018 21.128C108.37 21.192 108.701 21.2933 109.01 21.432C109.33 21.56 109.607 21.7307 109.842 21.944L109.298 23.256C109.095 23.0853 108.861 22.9413 108.594 22.824C108.327 22.696 108.05 22.6 107.762 22.536C107.485 22.4613 107.213 22.424 106.946 22.424C106.423 22.424 106.034 22.5147 105.778 22.696C105.533 22.8773 105.41 23.1173 105.41 23.416C105.41 23.64 105.485 23.8267 105.634 23.976C105.783 24.1253 106.013 24.2267 106.322 24.28L107.922 24.584C108.615 24.712 109.138 24.9467 109.49 25.288C109.853 25.6293 110.034 26.088 110.034 26.664C110.034 27.1867 109.895 27.6347 109.618 28.008C109.341 28.3813 108.951 28.6693 108.45 28.872C107.949 29.064 107.362 29.16 106.69 29.16Z" fill="white"/>
</g>
<g clip-path="url(#clip1_2457_174)">
<path d="M215.059 29V18.856H210.963V17.72H220.483V18.856H216.387V29H215.059ZM224.025 29.144C223.204 29.144 222.494 28.984 221.897 28.664C221.31 28.3333 220.852 27.8693 220.521 27.272C220.201 26.6747 220.041 25.96 220.041 25.128C220.041 24.3173 220.201 23.6133 220.521 23.016C220.841 22.408 221.278 21.9333 221.833 21.592C222.398 21.2507 223.049 21.08 223.785 21.08C224.489 21.08 225.092 21.2347 225.593 21.544C226.094 21.8533 226.478 22.2907 226.745 22.856C227.022 23.4213 227.161 24.0987 227.161 24.888V25.384H221.033V24.536H226.297L226.041 24.744C226.041 23.8907 225.849 23.2293 225.465 22.76C225.092 22.28 224.542 22.04 223.817 22.04C223.273 22.04 222.809 22.168 222.425 22.424C222.052 22.6693 221.769 23.016 221.577 23.464C221.385 23.9013 221.289 24.4133 221.289 25V25.096C221.289 25.7467 221.39 26.296 221.593 26.744C221.806 27.192 222.121 27.5333 222.537 27.768C222.953 27.992 223.449 28.104 224.025 28.104C224.484 28.104 224.926 28.0347 225.353 27.896C225.79 27.7467 226.201 27.5067 226.585 27.176L227.033 28.088C226.681 28.408 226.233 28.664 225.689 28.856C225.145 29.048 224.59 29.144 224.025 29.144ZM231.485 29.144C230.951 29.144 230.471 29.0427 230.045 28.84C229.629 28.6267 229.298 28.3387 229.053 27.976C228.807 27.6133 228.685 27.208 228.685 26.76C228.685 26.184 228.829 25.7307 229.117 25.4C229.415 25.0693 229.901 24.8347 230.573 24.696C231.255 24.5573 232.183 24.488 233.357 24.488H234.077V25.336H233.373C232.722 25.336 232.178 25.3573 231.741 25.4C231.303 25.4427 230.957 25.5173 230.701 25.624C230.445 25.7307 230.263 25.8693 230.157 26.04C230.05 26.2107 229.997 26.424 229.997 26.68C229.997 27.1173 230.146 27.4747 230.445 27.752C230.754 28.0293 231.17 28.168 231.693 28.168C232.119 28.168 232.493 28.0667 232.813 27.864C233.143 27.6613 233.399 27.384 233.581 27.032C233.773 26.68 233.869 26.2747 233.869 25.816V23.992C233.869 23.3307 233.735 22.856 233.469 22.568C233.202 22.2693 232.765 22.12 232.157 22.12C231.687 22.12 231.234 22.1893 230.797 22.328C230.359 22.456 229.911 22.6693 229.453 22.968L229.005 22.024C229.282 21.832 229.597 21.6667 229.949 21.528C230.301 21.3787 230.669 21.2667 231.053 21.192C231.437 21.1173 231.805 21.08 232.157 21.08C232.829 21.08 233.383 21.192 233.821 21.416C234.258 21.6293 234.583 21.96 234.797 22.408C235.01 22.8453 235.117 23.4107 235.117 24.104V29H233.901V27.192H234.045C233.959 27.5973 233.794 27.944 233.549 28.232C233.314 28.52 233.021 28.744 232.669 28.904C232.317 29.064 231.922 29.144 231.485 29.144ZM237.553 29V21.224H238.817V22.952H238.641C238.769 22.5573 238.956 22.2213 239.201 21.944C239.457 21.656 239.756 21.4427 240.097 21.304C240.449 21.1547 240.833 21.08 241.249 21.08C241.91 21.08 242.444 21.24 242.849 21.56C243.265 21.8693 243.542 22.3547 243.681 23.016H243.441C243.633 22.4187 243.974 21.9493 244.465 21.608C244.966 21.256 245.548 21.08 246.209 21.08C246.796 21.08 247.276 21.192 247.649 21.416C248.033 21.64 248.321 21.9813 248.513 22.44C248.705 22.888 248.801 23.4587 248.801 24.152V29H247.505V24.216C247.505 23.5013 247.382 22.9787 247.137 22.648C246.892 22.3067 246.476 22.136 245.889 22.136C245.473 22.136 245.105 22.2373 244.785 22.44C244.476 22.6427 244.236 22.9307 244.065 23.304C243.905 23.6667 243.825 24.0987 243.825 24.6V29H242.529V24.216C242.529 23.5013 242.401 22.9787 242.145 22.648C241.9 22.3067 241.489 22.136 240.913 22.136C240.486 22.136 240.118 22.2373 239.809 22.44C239.5 22.6427 239.26 22.9307 239.089 23.304C238.929 23.6667 238.849 24.0987 238.849 24.6V29H237.553Z" fill="#0A1629"/>
</g>
<g clip-path="url(#clip2_2457_174)">
<path d="M334.984 29V17.72H336.088L340.664 26.312H340.184L344.728 17.72H345.832V29H344.616V19.48H345L340.856 27.256H339.992L335.8 19.464H336.184V29H334.984ZM349.359 31.88L350.815 28.6V29.16L347.407 21.224H348.815L351.599 28.04H351.167L353.983 21.224H355.343L350.719 31.88H349.359ZM363.079 29L359.735 21.224H361.143L363.927 28.04H363.495L366.327 21.224H367.655L364.295 29H363.079ZM371.317 29.144C370.784 29.144 370.304 29.0427 369.877 28.84C369.461 28.6267 369.131 28.3387 368.885 27.976C368.64 27.6133 368.517 27.208 368.517 26.76C368.517 26.184 368.661 25.7307 368.949 25.4C369.248 25.0693 369.733 24.8347 370.405 24.696C371.088 24.5573 372.016 24.488 373.189 24.488H373.909V25.336H373.205C372.555 25.336 372.011 25.3573 371.573 25.4C371.136 25.4427 370.789 25.5173 370.533 25.624C370.277 25.7307 370.096 25.8693 369.989 26.04C369.883 26.2107 369.829 26.424 369.829 26.68C369.829 27.1173 369.979 27.4747 370.277 27.752C370.587 28.0293 371.003 28.168 371.525 28.168C371.952 28.168 372.325 28.0667 372.645 27.864C372.976 27.6613 373.232 27.384 373.413 27.032C373.605 26.68 373.701 26.2747 373.701 25.816V23.992C373.701 23.3307 373.568 22.856 373.301 22.568C373.035 22.2693 372.597 22.12 371.989 22.12C371.52 22.12 371.067 22.1893 370.629 22.328C370.192 22.456 369.744 22.6693 369.285 22.968L368.837 22.024C369.115 21.832 369.429 21.6667 369.781 21.528C370.133 21.3787 370.501 21.2667 370.885 21.192C371.269 21.1173 371.637 21.08 371.989 21.08C372.661 21.08 373.216 21.192 373.653 21.416C374.091 21.6293 374.416 21.96 374.629 22.408C374.843 22.8453 374.949 23.4107 374.949 24.104V29H373.733V27.192H373.877C373.792 27.5973 373.627 27.944 373.381 28.232C373.147 28.52 372.853 28.744 372.501 28.904C372.149 29.064 371.755 29.144 371.317 29.144ZM380.65 29.144C379.871 29.144 379.199 28.9733 378.634 28.632C378.068 28.2907 377.631 27.816 377.322 27.208C377.023 26.5893 376.874 25.8747 376.874 25.064C376.874 24.2427 377.023 23.5333 377.322 22.936C377.631 22.3387 378.068 21.88 378.634 21.56C379.199 21.24 379.871 21.08 380.65 21.08C381.13 21.08 381.604 21.1653 382.074 21.336C382.543 21.5067 382.932 21.7467 383.242 22.056L382.794 23C382.484 22.7013 382.143 22.4827 381.77 22.344C381.407 22.2053 381.06 22.136 380.73 22.136C379.919 22.136 379.295 22.392 378.858 22.904C378.42 23.4053 378.202 24.1307 378.202 25.08C378.202 26.008 378.42 26.744 378.858 27.288C379.295 27.8213 379.919 28.088 380.73 28.088C381.06 28.088 381.407 28.0187 381.77 27.88C382.143 27.7413 382.484 27.5173 382.794 27.208L383.242 28.152C382.932 28.4613 382.538 28.7067 382.058 28.888C381.588 29.0587 381.119 29.144 380.65 29.144ZM387.145 29.144C386.612 29.144 386.132 29.0427 385.705 28.84C385.289 28.6267 384.959 28.3387 384.713 27.976C384.468 27.6133 384.345 27.208 384.345 26.76C384.345 26.184 384.489 25.7307 384.777 25.4C385.076 25.0693 385.561 24.8347 386.233 24.696C386.916 24.5573 387.844 24.488 389.017 24.488H389.737V25.336H389.033C388.383 25.336 387.839 25.3573 387.401 25.4C386.964 25.4427 386.617 25.5173 386.361 25.624C386.105 25.7307 385.924 25.8693 385.817 26.04C385.711 26.2107 385.657 26.424 385.657 26.68C385.657 27.1173 385.807 27.4747 386.105 27.752C386.415 28.0293 386.831 28.168 387.353 28.168C387.78 28.168 388.153 28.0667 388.473 27.864C388.804 27.6613 389.06 27.384 389.241 27.032C389.433 26.68 389.529 26.2747 389.529 25.816V23.992C389.529 23.3307 389.396 22.856 389.129 22.568C388.863 22.2693 388.425 22.12 387.817 22.12C387.348 22.12 386.895 22.1893 386.457 22.328C386.02 22.456 385.572 22.6693 385.113 22.968L384.665 22.024C384.943 21.832 385.257 21.6667 385.609 21.528C385.961 21.3787 386.329 21.2667 386.713 21.192C387.097 21.1173 387.465 21.08 387.817 21.08C388.489 21.08 389.044 21.192 389.481 21.416C389.919 21.6293 390.244 21.96 390.457 22.408C390.671 22.8453 390.777 23.4107 390.777 24.104V29H389.561V27.192H389.705C389.62 27.5973 389.455 27.944 389.209 28.232C388.975 28.52 388.681 28.744 388.329 28.904C387.977 29.064 387.583 29.144 387.145 29.144ZM396.302 29.144C395.384 29.144 394.696 28.8987 394.238 28.408C393.779 27.9173 393.55 27.2187 393.55 26.312V22.232H392.03V21.224H393.55V18.84H394.846V21.224H397.31V22.232H394.846V26.184C394.846 26.792 394.974 27.256 395.23 27.576C395.486 27.8853 395.902 28.04 396.478 28.04C396.648 28.04 396.819 28.0187 396.99 27.976C397.16 27.9333 397.315 27.8907 397.454 27.848L397.678 28.84C397.539 28.9147 397.336 28.984 397.07 29.048C396.803 29.112 396.547 29.144 396.302 29.144ZM398.616 19.288V17.832H400.216V19.288H398.616ZM398.776 29V21.224H400.072V29H398.776ZM405.726 29.144C404.969 29.144 404.313 28.9787 403.758 28.648C403.204 28.3173 402.772 27.8533 402.462 27.256C402.164 26.648 402.014 25.9333 402.014 25.112C402.014 24.2907 402.164 23.5813 402.462 22.984C402.772 22.376 403.204 21.9067 403.758 21.576C404.313 21.2453 404.969 21.08 405.726 21.08C406.484 21.08 407.14 21.2453 407.694 21.576C408.249 21.9067 408.676 22.376 408.974 22.984C409.284 23.5813 409.438 24.2907 409.438 25.112C409.438 25.9333 409.284 26.648 408.974 27.256C408.676 27.8533 408.249 28.3173 407.694 28.648C407.14 28.9787 406.484 29.144 405.726 29.144ZM405.726 28.104C406.462 28.104 407.044 27.848 407.47 27.336C407.908 26.8133 408.126 26.0667 408.126 25.096C408.126 24.136 407.908 23.4 407.47 22.888C407.044 22.376 406.462 22.12 405.726 22.12C405.001 22.12 404.42 22.376 403.982 22.888C403.545 23.4 403.326 24.136 403.326 25.096C403.326 26.0667 403.545 26.8133 403.982 27.336C404.42 27.848 405.001 28.104 405.726 28.104ZM411.385 29V21.224H412.649V22.952H412.473C412.697 22.3333 413.06 21.8693 413.561 21.56C414.073 21.24 414.66 21.08 415.321 21.08C415.94 21.08 416.452 21.192 416.857 21.416C417.273 21.6293 417.582 21.9653 417.785 22.424C417.988 22.8827 418.089 23.4587 418.089 24.152V29H416.793V24.232C416.793 23.752 416.729 23.3573 416.601 23.048C416.484 22.7387 416.292 22.5093 416.025 22.36C415.769 22.2107 415.433 22.136 415.017 22.136C414.548 22.136 414.137 22.2373 413.785 22.44C413.433 22.6427 413.161 22.9253 412.969 23.288C412.777 23.6507 412.681 24.0773 412.681 24.568V29H411.385ZM423.103 29.144C422.697 29.144 422.303 29.1013 421.919 29.016C421.545 28.9413 421.193 28.8347 420.863 28.696C420.543 28.5467 420.265 28.3707 420.031 28.168L420.447 27.256C420.703 27.4587 420.98 27.6293 421.279 27.768C421.577 27.896 421.881 27.992 422.191 28.056C422.5 28.12 422.815 28.152 423.135 28.152C423.743 28.152 424.201 28.04 424.511 27.816C424.82 27.592 424.975 27.288 424.975 26.904C424.975 26.6053 424.873 26.3707 424.671 26.2C424.468 26.0187 424.148 25.88 423.711 25.784L422.255 25.464C421.583 25.3253 421.081 25.0853 420.751 24.744C420.431 24.4027 420.271 23.96 420.271 23.416C420.271 22.936 420.393 22.5253 420.639 22.184C420.895 21.832 421.252 21.56 421.711 21.368C422.169 21.176 422.703 21.08 423.311 21.08C423.673 21.08 424.02 21.1173 424.351 21.192C424.681 21.2667 424.991 21.3787 425.279 21.528C425.577 21.6667 425.833 21.8427 426.047 22.056L425.615 22.968C425.412 22.776 425.183 22.616 424.927 22.488C424.671 22.3493 424.404 22.248 424.127 22.184C423.86 22.1093 423.588 22.072 423.311 22.072C422.713 22.072 422.26 22.1893 421.951 22.424C421.641 22.6587 421.487 22.968 421.487 23.352C421.487 23.6507 421.583 23.896 421.775 24.088C421.967 24.28 422.265 24.4187 422.671 24.504L424.127 24.808C424.82 24.9573 425.337 25.1973 425.679 25.528C426.031 25.848 426.207 26.2853 426.207 26.84C426.207 27.3093 426.079 27.72 425.823 28.072C425.567 28.4133 425.204 28.68 424.735 28.872C424.276 29.0533 423.732 29.144 423.103 29.144Z" fill="#0A1629"/>
</g>
<defs>
<clipPath id="clip0_2457_174">
<rect width="150.271" height="40" fill="white" transform="translate(5.09375 4)"/>
</clipPath>
<clipPath id="clip1_2457_174">
<rect width="150.271" height="40" fill="white" transform="translate(155.365 4)"/>
</clipPath>
<clipPath id="clip2_2457_174">
<rect width="150.271" height="40" fill="white" transform="translate(305.635 4)"/>
</clipPath>
</defs>
</svg>
